<?xml version="1.0" standalone="no"?>
<!DOCTYPE svg PUBLIC "-//W3C//DTD SVG 20010904//EN"
 "http://www.w3.org/TR/2001/REC-SVG-20010904/DTD/svg10.dtd">
<svg version="1.0" xmlns="http://www.w3.org/2000/svg"
 width="76.000000pt" height="76.000000pt" viewBox="0 0 76.000000 76.000000"
 preserveAspectRatio="xMidYMid meet">
<metadata>
Created by potrace 1.14, written by Peter Selinger 2001-2017
</metadata>
<g transform="translate(0.000000,76.000000) scale(0.100000,-0.100000)"
fill="#000000" stroke="none">
<path d="M397 730 l-32 -28 -1 -304 c0 -167 3 -317 8 -335 13 -49 55 -63 192
-63 68 0 126 5 141 12 53 24 56 41 55 378 l-1 310 -30 29 -29 30 -136 0 c-134
0 -135 0 -167 -29z m258 -195 c27 -12 43 -29 54 -58 8 -20 6 -27 -7 -33 -27
-11 -72 -13 -72 -3 0 6 -4 8 -9 4 -5 -3 -13 0 -17 6 -4 8 -3 9 4 5 7 -4 12 -3
12 2 0 16 -43 22 -59 9 -12 -10 -13 -9 -6 2 6 10 4 12 -4 7 -13 -9 -33 -52
-35 -76 -2 -21 18 -80 25 -77 3 1 13 -4 22 -11 10 -9 17 -10 22 -2 3 6 10 8
15 5 5 -3 12 0 16 6 5 8 3 9 -7 4 -8 -4 -5 1 6 12 26 24 55 36 55 21 0 -6 3
-8 6 -5 4 3 15 2 25 -3 20 -11 22 -47 2 -54 -7 -3 -13 -13 -13 -21 0 -9 -4
-13 -10 -10 -5 3 -10 2 -10 -4 0 -22 -96 -34 -145 -18 -16 5 -37 16 -46 23 -9
8 -19 11 -22 7 -4 -3 -7 1 -7 10 0 8 -5 17 -12 19 -14 5 -21 168 -7 168 5 0 9
7 9 16 0 8 4 13 9 10 5 -3 11 1 15 9 13 35 134 53 191 30z"/>
<path d="M56 503 c88 -118 85 -95 17 -185 -24 -31 -43 -59 -43 -62 0 -3 20 -6
44 -6 41 0 47 4 73 40 15 22 31 40 35 40 4 0 20 -18 34 -40 24 -36 31 -40 69
-40 23 0 44 3 48 6 3 3 -18 38 -48 76 l-53 71 50 66 50 66 -33 3 c-49 5 -72
-5 -91 -38 -9 -16 -21 -30 -25 -30 -4 0 -18 16 -31 35 -21 32 -26 35 -73 35
l-51 0 28 -37z"/>
</g>
</svg>
